<svg width="42" height="42" viewBox="0 0 42 42" fill="none" xmlns="http://www.w3.org/2000/svg">
<circle cx="20.6159" cy="21.3841" r="20.6159" fill="#DFFAFB"/>
<path d="M21 11C18.38 11 16.25 13.13 16.25 15.75C16.25 18.32 18.26 20.4 20.88 20.49C20.96 20.48 21.04 20.48 21.1 20.49C21.12 20.49 21.13 20.49 21.15 20.49C21.16 20.49 21.16 20.49 21.17 20.49C23.73 20.4 25.74 18.32 25.75 15.75C25.75 13.13 23.62 11 21 11Z" fill="#12888C"/>
<path d="M26.0809 23.15C23.2909 21.29 18.7409 21.29 15.9309 23.15C14.6609 24 13.9609 25.15 13.9609 26.38C13.9609 27.61 14.6609 28.75 15.9209 29.59C17.3209 30.53 19.1609 31 21.0009 31C22.8409 31 24.6809 30.53 26.0809 29.59C27.3409 28.74 28.0409 27.6 28.0409 26.36C28.0309 25.13 27.3409 23.99 26.0809 23.15Z" fill="#12888C"/>
</svg>
