<svg width="18" height="18" viewBox="0 0 18 18" fill="none" xmlns="http://www.w3.org/2000/svg">
<path d="M15.623 6.00751L10.7105 2.07751C9.75046 1.31251 8.25046 1.30501 7.29796 2.07001L2.38546 6.00751C1.68046 6.57001 1.25296 7.69501 1.40296 8.58001L2.34796 14.235C2.56546 15.5025 3.74296 16.5 5.02546 16.5H12.9755C14.243 16.5 15.443 15.48 15.6605 14.2275L16.6055 8.57251C16.7405 7.69501 16.313 6.57001 15.623 6.00751ZM9.56296 13.5C9.56296 13.8075 9.30796 14.0625 9.00046 14.0625C8.69296 14.0625 8.43796 13.8075 8.43796 13.5V11.25C8.43796 10.9425 8.69296 10.6875 9.00046 10.6875C9.30796 10.6875 9.56296 10.9425 9.56296 11.25V13.5Z" fill="#12888C"/>
</svg>
