<svg width="30" height="31" viewBox="0 0 30 31" fill="none" xmlns="http://www.w3.org/2000/svg">
<path d="M15 27.5625C14.6125 27.5625 14.2375 27.5125 13.925 27.4C9.15 25.7625 1.5625 19.95 1.5625 11.3625C1.5625 6.9875 5.1 3.4375 9.45 3.4375C11.5625 3.4375 13.5375 4.2625 15 5.7375C16.4625 4.2625 18.4375 3.4375 20.55 3.4375C24.9 3.4375 28.4375 7 28.4375 11.3625C28.4375 19.9625 20.85 25.7625 16.075 27.4C15.7625 27.5125 15.3875 27.5625 15 27.5625ZM9.45 5.3125C6.1375 5.3125 3.4375 8.025 3.4375 11.3625C3.4375 19.9 11.65 24.65 14.5375 25.6375C14.7625 25.7125 15.25 25.7125 15.475 25.6375C18.35 24.65 26.575 19.9125 26.575 11.3625C26.575 8.025 23.875 5.3125 20.5625 5.3125C18.6625 5.3125 16.9 6.2 15.7625 7.7375C15.4125 8.2125 14.6125 8.2125 14.2625 7.7375C13.1 6.1875 11.35 5.3125 9.45 5.3125Z" fill="#5D5D5D"/>
</svg>
