<svg width="18" height="18" viewBox="0 0 18 18" fill="none" xmlns="http://www.w3.org/2000/svg">
<path d="M5.90969 9.0525C5.90969 8.745 6.16469 8.49 6.47219 8.49H10.5822V2.145C10.5747 1.785 10.2897 1.5 9.92969 1.5C5.51219 1.5 2.42969 4.5825 2.42969 9C2.42969 13.4175 5.51219 16.5 9.92969 16.5C10.2822 16.5 10.5747 16.215 10.5747 15.855V9.6075H6.47219C6.15719 9.615 5.90969 9.36 5.90969 9.0525Z" fill="#12888C"/>
<path d="M15.4042 8.655L13.2742 6.5175C13.0567 6.3 12.6967 6.3 12.4792 6.5175C12.2617 6.735 12.2617 7.095 12.4792 7.3125L13.6492 8.4825H10.5742V9.6075H13.6417L12.4717 10.7775C12.2542 10.995 12.2542 11.355 12.4717 11.5725C12.5842 11.685 12.7267 11.7375 12.8692 11.7375C13.0117 11.7375 13.1542 11.685 13.2667 11.5725L15.3967 9.435C15.6217 9.225 15.6217 8.8725 15.4042 8.655Z" fill="#12888C"/>
</svg>
