<svg width="24" height="24" viewBox="0 0 24 24" fill="none" xmlns="http://www.w3.org/2000/svg">
<path d="M12 10.52C11.59 10.52 11.25 10.18 11.25 9.77V6.44C11.25 6.03 11.59 5.69 12 5.69C12.41 5.69 12.75 6.03 12.75 6.44V9.77C12.75 10.19 12.41 10.52 12 10.52Z" fill="#292D32"/>
<path d="M12.0208 20.35C9.44084 20.35 6.87084 19.94 4.42084 19.12C3.51084 18.82 2.82084 18.17 2.52084 17.35C2.22084 16.53 2.32084 15.59 2.81084 14.77L4.08084 12.65C4.36084 12.18 4.61084 11.3 4.61084 10.75V8.64999C4.61084 4.55999 7.93084 1.23999 12.0208 1.23999C16.1108 1.23999 19.4308 4.55999 19.4308 8.64999V10.75C19.4308 11.29 19.6808 12.18 19.9608 12.65L21.2308 14.77C21.7008 15.55 21.7808 16.48 21.4708 17.33C21.1608 18.18 20.4808 18.83 19.6208 19.12C17.1708 19.95 14.6008 20.35 12.0208 20.35ZM12.0208 2.74999C8.76084 2.74999 6.11084 5.39999 6.11084 8.65999V10.76C6.11084 11.57 5.79084 12.74 5.37084 13.43L4.10084 15.56C3.84084 15.99 3.78084 16.45 3.93084 16.85C4.08084 17.25 4.42084 17.55 4.90084 17.71C9.50084 19.24 14.5608 19.24 19.1608 17.71C19.5908 17.57 19.9208 17.25 20.0708 16.83C20.2308 16.41 20.1808 15.95 19.9508 15.56L18.6808 13.44C18.2608 12.75 17.9408 11.58 17.9408 10.77V8.66999C17.9308 5.39999 15.2808 2.74999 12.0208 2.74999Z" fill="#292D32"/>
<path d="M11.9999 22.9C10.9299 22.9 9.87992 22.46 9.11992 21.7C8.35992 20.94 7.91992 19.89 7.91992 18.82H9.41992C9.41992 19.5 9.69992 20.16 10.1799 20.64C10.6599 21.12 11.3199 21.4 11.9999 21.4C13.4199 21.4 14.5799 20.24 14.5799 18.82H16.0799C16.0799 21.07 14.2499 22.9 11.9999 22.9Z" fill="#292D32"/>
</svg>
