<svg width="20" height="21" viewBox="0 0 20 21" fill="none" xmlns="http://www.w3.org/2000/svg">
<path d="M2.5 3.38696H3.00526C3.85578 3.38696 4.56986 4.02738 4.6621 4.87288L5.3379 11.0677C5.43014 11.9132 6.14422 12.5536 6.99474 12.5536H14.205C14.9669 12.5536 15.6317 12.037 15.82 11.2988L16.9699 6.78955C17.2387 5.73575 16.4425 4.71104 15.355 4.71104H5.5M5.52063 15.5744H6.14563M5.52063 16.1994H6.14563M14.6873 15.5744H15.3123M14.6873 16.1994H15.3123M6.66667 15.887C6.66667 16.3472 6.29357 16.7203 5.83333 16.7203C5.3731 16.7203 5 16.3472 5 15.887C5 15.4267 5.3731 15.0536 5.83333 15.0536C6.29357 15.0536 6.66667 15.4267 6.66667 15.887ZM15.8333 15.887C15.8333 16.3472 15.4602 16.7203 15 16.7203C14.5398 16.7203 14.1667 16.3472 14.1667 15.887C14.1667 15.4267 14.5398 15.0536 15 15.0536C15.4602 15.0536 15.8333 15.4267 15.8333 15.887Z" stroke="white" stroke-width="1.5" stroke-linecap="round"/>
</svg>
