<svg width="24" height="25" viewBox="0 0 24 25" fill="none" xmlns="http://www.w3.org/2000/svg">
<path fill-rule="evenodd" clip-rule="evenodd" d="M18 4.76819H6C3.79086 4.76819 2 6.55905 2 8.76819V17.7682C2 19.9773 3.79086 21.7682 6 21.7682H18C20.2091 21.7682 22 19.9773 22 17.7682V8.76819C22 6.55905 20.2091 4.76819 18 4.76819ZM6 6.35819H18C19.0657 6.36022 20.0025 7.06482 20.3 8.08819L12.76 13.6782C12.5534 13.8802 12.2732 13.9891 11.9843 13.9797C11.6955 13.9703 11.423 13.8433 11.23 13.6282L3.72 8.09819C4.01175 7.07792 4.9389 6.37035 6 6.35819ZM3.59 17.7682C3.59 19.0992 4.66899 20.1782 6 20.1782H18C19.3271 20.1727 20.4 19.0953 20.4 17.7682V9.73819L13.6 14.7382C13.1654 15.1428 12.5938 15.3679 12 15.3682C11.3827 15.3584 10.7911 15.1196 10.34 14.6982L3.59 9.69819V17.7682Z" fill="#9BA6A6"/>
</svg>
