<svg width="24" height="25" viewBox="0 0 24 25" fill="none" xmlns="http://www.w3.org/2000/svg">
<path d="M9.46992 16.0482C9.27992 16.0482 9.08992 15.9782 8.93992 15.8282C8.11992 15.0082 7.66992 13.9182 7.66992 12.7682C7.66992 10.3782 9.60992 8.43823 11.9999 8.43823C13.1499 8.43823 14.2399 8.88823 15.0599 9.70823C15.1999 9.84823 15.2799 10.0382 15.2799 10.2382C15.2799 10.4382 15.1999 10.6282 15.0599 10.7682L9.99992 15.8282C9.84992 15.9782 9.65992 16.0482 9.46992 16.0482ZM11.9999 9.93823C10.4399 9.93823 9.16992 11.2082 9.16992 12.7682C9.16992 13.2682 9.29992 13.7482 9.53992 14.1682L13.3999 10.3082C12.9799 10.0682 12.4999 9.93823 11.9999 9.93823Z" fill="#9BA6A6"/>
<path d="M5.59984 19.2782C5.42984 19.2782 5.24984 19.2182 5.10984 19.0982C4.03984 18.1882 3.07984 17.0682 2.25984 15.7682C1.19984 14.1182 1.19984 11.4282 2.25984 9.76817C4.69984 5.94817 8.24984 3.74817 11.9998 3.74817C14.1998 3.74817 16.3698 4.50817 18.2698 5.93817C18.5998 6.18817 18.6698 6.65817 18.4198 6.98817C18.1698 7.31817 17.6998 7.38817 17.3698 7.13817C15.7298 5.89817 13.8698 5.24817 11.9998 5.24817C8.76984 5.24817 5.67984 7.18817 3.51984 10.5782C2.76984 11.7482 2.76984 13.7882 3.51984 14.9582C4.26984 16.1282 5.12984 17.1382 6.07984 17.9582C6.38984 18.2282 6.42984 18.6982 6.15984 19.0182C6.01984 19.1882 5.80984 19.2782 5.59984 19.2782Z" fill="#9BA6A6"/>
<path d="M12.0006 21.7882C10.6706 21.7882 9.37055 21.5182 8.12055 20.9882C7.74055 20.8282 7.56055 20.3882 7.72055 20.0082C7.88055 19.6282 8.32055 19.4482 8.70055 19.6082C9.76055 20.0582 10.8706 20.2882 11.9906 20.2882C15.2206 20.2882 18.3106 18.3482 20.4706 14.9582C21.2206 13.7882 21.2206 11.7482 20.4706 10.5782C20.1606 10.0882 19.8205 9.61819 19.4606 9.17819C19.2006 8.85819 19.2506 8.38819 19.5706 8.11819C19.8906 7.85819 20.3605 7.89819 20.6306 8.22819C21.0206 8.70819 21.4006 9.22819 21.7406 9.76819C22.8006 11.4182 22.8006 14.1082 21.7406 15.7682C19.3006 19.5882 15.7506 21.7882 12.0006 21.7882Z" fill="#9BA6A6"/>
<path d="M12.6896 17.0382C12.3396 17.0382 12.0196 16.7882 11.9496 16.4282C11.8696 16.0182 12.1396 15.6282 12.5496 15.5582C13.6496 15.3582 14.5696 14.4382 14.7696 13.3382C14.8496 12.9282 15.2396 12.6682 15.6496 12.7382C16.0596 12.8182 16.3296 13.2082 16.2496 13.6182C15.9296 15.3482 14.5496 16.7182 12.8296 17.0382C12.7796 17.0282 12.7396 17.0382 12.6896 17.0382Z" fill="#9BA6A6"/>
<path d="M1.99945 23.5182C1.80945 23.5182 1.61945 23.4482 1.46945 23.2982C1.17945 23.0082 1.17945 22.5282 1.46945 22.2382L8.93945 14.7682C9.22945 14.4782 9.70945 14.4782 9.99945 14.7682C10.2895 15.0582 10.2895 15.5382 9.99945 15.8282L2.52945 23.2982C2.37945 23.4482 2.18945 23.5182 1.99945 23.5182Z" fill="#9BA6A6"/>
<path d="M14.5307 10.9881C14.3407 10.9881 14.1507 10.9181 14.0007 10.7681C13.7107 10.4781 13.7107 9.99813 14.0007 9.70813L21.4707 2.23813C21.7607 1.94813 22.2407 1.94813 22.5307 2.23813C22.8207 2.52813 22.8207 3.00813 22.5307 3.29813L15.0607 10.7681C14.9107 10.9181 14.7207 10.9881 14.5307 10.9881Z" fill="#9BA6A6"/>
</svg>
