<svg width="24" height="25" viewBox="0 0 24 25" fill="none" xmlns="http://www.w3.org/2000/svg">
  <path d="M12 4.24817C8.24996 4.24817 4.69996 6.44817 2.25996 10.2682C1.19996 11.9182 1.19996 14.6082 2.25996 16.2682C4.69996 20.0882 8.24996 22.2882 12 22.2882C15.75 22.2882 19.3 20.0882 21.74 16.2682C22.8 14.6082 22.8 11.9182 21.74 10.2682C19.3 6.44817 15.75 4.24817 12 4.24817ZM12 20.7882C9.76996 20.7882 7.58996 19.8582 5.73996 17.9882C4.41996 16.5082 3.44996 14.6182 3.44996 12.2682C3.44996 9.91817 4.41996 8.02817 5.73996 6.54817C7.58996 4.67817 9.76996 3.74817 12 3.74817C14.23 3.74817 16.41 4.67817 18.26 6.54817C19.58 8.02817 20.55 9.91817 20.55 12.2682C20.55 14.6182 19.58 16.5082 18.26 17.9882C16.41 19.8582 14.23 20.7882 12 20.7882Z" fill="#9BA6A6"/>
  <circle cx="12" cy="12.2682" r="3.5" fill="#9BA6A6"/>
</svg>
