<svg width="28" height="29" viewBox="0 0 28 29" fill="none" xmlns="http://www.w3.org/2000/svg">
<path d="M25.5173 1.82471H2.48508C1.69617 1.82471 1.05664 2.46424 1.05664 3.25314V26.2853C1.05664 27.0742 1.69617 27.7138 2.48508 27.7138H25.5173C26.3062 27.7138 26.9457 27.0742 26.9457 26.2853V3.25314C26.9457 2.46424 26.3062 1.82471 25.5173 1.82471Z" fill="#3D5A98"/>
<path d="M18.9166 27.7116V17.6863H22.281L22.7841 13.7794H18.9166V11.2856C18.9166 10.1547 19.2316 9.38251 20.8526 9.38251H22.922V5.88251C21.9199 5.77827 20.9129 5.72861 19.9054 5.73376C16.926 5.73376 14.8741 7.54939 14.8741 10.8984V13.7794H11.5098V17.6863H14.8741V27.7116H18.9166Z" fill="white"/>
</svg>
