<svg width="33" height="33" viewBox="0 0 33 33" fill="none" xmlns="http://www.w3.org/2000/svg">
<path d="M29.5733 14.1568H28.4993V14.1015H16.4993V19.4348H24.0347C22.9353 22.5395 19.9813 24.7681 16.4993 24.7681C12.0813 24.7681 8.49935 21.1861 8.49935 16.7681C8.49935 12.3501 12.0813 8.76815 16.4993 8.76815C18.5387 8.76815 20.394 9.53748 21.8067 10.7941L25.578 7.02281C23.1967 4.80348 20.0113 3.43481 16.4993 3.43481C9.13602 3.43481 3.16602 9.40481 3.16602 16.7681C3.16602 24.1315 9.13602 30.1015 16.4993 30.1015C23.8627 30.1015 29.8327 24.1315 29.8327 16.7681C29.8327 15.8741 29.7407 15.0015 29.5733 14.1568Z" fill="#FFC107"/>
<path d="M4.70312 10.5621L9.08379 13.7748C10.2691 10.8401 13.1398 8.76815 16.4991 8.76815C18.5385 8.76815 20.3938 9.53748 21.8065 10.7941L25.5778 7.02281C23.1965 4.80348 20.0111 3.43481 16.4991 3.43481C11.3778 3.43481 6.93646 6.32615 4.70312 10.5621Z" fill="#FF3D00"/>
<path d="M16.5009 30.1014C19.9449 30.1014 23.0742 28.7834 25.4402 26.64L21.3135 23.148C19.9299 24.2003 18.2392 24.7694 16.5009 24.768C13.0329 24.768 10.0882 22.5567 8.97886 19.4707L4.63086 22.8207C6.83753 27.1387 11.3189 30.1014 16.5009 30.1014Z" fill="#4CAF50"/>
<path d="M29.574 14.1567H28.5V14.1013H16.5V19.4347H24.0353C23.5095 20.9123 22.5622 22.2034 21.3107 23.1487L21.3127 23.1473L25.4393 26.6393C25.1473 26.9047 29.8333 23.4347 29.8333 16.768C29.8333 15.874 29.7413 15.0013 29.574 14.1567Z" fill="#1976D2"/>
</svg>
