<svg width="25" height="22" viewBox="0 0 25 22" fill="none" xmlns="http://www.w3.org/2000/svg">
<path d="M6.75195 2.79207C5.97195 2.79207 5.24829 2.98707 4.58095 3.37707C3.91362 3.76707 3.38495 4.29574 2.99495 4.96307C2.60495 5.63041 2.40995 6.35407 2.40995 7.13407C2.40995 8.91941 2.92129 10.6181 3.94395 12.2301C4.77595 13.5821 5.93729 14.8474 7.42795 16.0261C8.76262 17.1181 10.2966 18.0801 12.03 18.9121L12.16 18.9641C13.9453 18.1147 15.54 17.1267 16.944 16.0001L16.892 16.0261C18.3826 14.8474 19.544 13.5821 20.376 12.2301C21.3986 10.6181 21.91 8.91941 21.91 7.13407C21.91 6.35407 21.715 5.63041 21.325 4.96307C20.935 4.29574 20.4063 3.76707 19.739 3.37707C19.0716 2.98707 18.348 2.79207 17.568 2.79207C16.8746 2.79207 16.2203 2.94374 15.605 3.24707C14.9896 3.55041 14.4696 3.96641 14.045 4.49507C13.6203 5.02374 13.3473 5.61741 13.226 6.27607C13.174 6.51874 13.0483 6.72241 12.849 6.88707C12.6496 7.05174 12.42 7.13407 12.16 7.13407C11.9 7.13407 11.6703 7.05174 11.471 6.88707C11.2716 6.72241 11.146 6.51874 11.094 6.27607C10.9726 5.61741 10.6996 5.02374 10.275 4.49507C9.85029 3.96641 9.33029 3.55041 8.71495 3.24707C8.09962 2.94374 7.44529 2.79207 6.75195 2.79207ZM12.16 21.2261C12.004 21.2087 11.848 21.1741 11.692 21.1221C11.6053 21.0874 11.458 21.0181 11.25 20.9141C9.34329 20.0127 7.60129 18.9294 6.02395 17.6641L6.07595 17.7161C4.39462 16.3987 3.06862 14.9601 2.09795 13.4001C0.867287 11.4241 0.251953 9.33541 0.251953 7.13407C0.251953 5.95541 0.542286 4.86774 1.12295 3.87107C1.70362 2.87441 2.49229 2.08574 3.48895 1.50507C4.48562 0.924408 5.57329 0.634073 6.75195 0.634073C7.84395 0.634073 8.86229 0.881073 9.80695 1.37507C10.7516 1.86907 11.536 2.54074 12.16 3.39007V3.41607C12.784 2.54941 13.5683 1.86907 14.513 1.37507C15.4576 0.881073 16.476 0.634073 17.568 0.634073C18.7466 0.634073 19.8343 0.924408 20.831 1.50507C21.8276 2.08574 22.6163 2.87441 23.197 3.87107C23.7776 4.86774 24.068 5.95541 24.068 7.13407C24.068 9.33541 23.4526 11.4241 22.222 13.4001C21.2513 14.9601 19.9253 16.3987 18.244 17.7161C16.7013 18.9294 15.0286 19.9781 13.226 20.8621L13.07 20.9141C12.654 21.1221 12.3506 21.2261 12.16 21.2261Z" fill="#030712"/>
</svg>
