<svg width="24" height="25" viewBox="0 0 24 25" fill="none" xmlns="http://www.w3.org/2000/svg">
<path d="M18 11.5182C17.59 11.5182 17.25 11.1782 17.25 10.7682V8.76819C17.25 5.61819 16.36 3.51819 12 3.51819C7.64 3.51819 6.75 5.61819 6.75 8.76819V10.7682C6.75 11.1782 6.41 11.5182 6 11.5182C5.59 11.5182 5.25 11.1782 5.25 10.7682V8.76819C5.25 5.86819 5.95 2.01819 12 2.01819C18.05 2.01819 18.75 5.86819 18.75 8.76819V10.7682C18.75 11.1782 18.41 11.5182 18 11.5182Z" fill="#9BA6A6"/>
<path d="M12 20.0182C10.21 20.0182 8.75 18.5582 8.75 16.7682C8.75 14.9782 10.21 13.5182 12 13.5182C13.79 13.5182 15.25 14.9782 15.25 16.7682C15.25 18.5582 13.79 20.0182 12 20.0182ZM12 15.0182C11.04 15.0182 10.25 15.8082 10.25 16.7682C10.25 17.7282 11.04 18.5182 12 18.5182C12.96 18.5182 13.75 17.7282 13.75 16.7682C13.75 15.8082 12.96 15.0182 12 15.0182Z" fill="#9BA6A6"/>
<path d="M17 23.5182H7C2.59 23.5182 1.25 22.1782 1.25 17.7682V15.7682C1.25 11.3582 2.59 10.0182 7 10.0182H17C21.41 10.0182 22.75 11.3582 22.75 15.7682V17.7682C22.75 22.1782 21.41 23.5182 17 23.5182ZM7 11.5182C3.42 11.5182 2.75 12.1982 2.75 15.7682V17.7682C2.75 21.3382 3.42 22.0182 7 22.0182H17C20.58 22.0182 21.25 21.3382 21.25 17.7682V15.7682C21.25 12.1982 20.58 11.5182 17 11.5182H7Z" fill="#9BA6A6"/>
</svg>
