<svg width="17" height="14" viewBox="0 0 17 14" fill="none" xmlns="http://www.w3.org/2000/svg">
<path d="M15.9508 6.24612H1.29878C1.09345 6.24612 0.917448 6.31212 0.770781 6.44412C0.624115 6.57612 0.550781 6.75579 0.550781 6.98312C0.550781 7.21045 0.616781 7.38645 0.748781 7.51112C0.880781 7.63579 1.06411 7.69812 1.29878 7.69812H15.9508C16.1561 7.69812 16.3321 7.63212 16.4788 7.50012C16.6255 7.36812 16.6988 7.19212 16.6988 6.97212C16.6988 6.75212 16.6255 6.57612 16.4788 6.44412C16.3321 6.31212 16.1561 6.24612 15.9508 6.24612ZM1.29878 2.11012H15.9508C16.1561 2.11012 16.3321 2.04412 16.4788 1.91212C16.6255 1.78012 16.6988 1.60412 16.6988 1.38412C16.6988 1.16412 16.6255 1.00279 16.4788 0.90012C16.3321 0.797454 16.1561 0.74612 15.9508 0.74612H1.29878C1.10811 0.74612 0.935781 0.808454 0.781781 0.93312C0.627781 1.05779 0.550781 1.21179 0.550781 1.39512C0.550781 1.57845 0.627781 1.74345 0.781781 1.89012C0.935781 2.03679 1.10811 2.11012 1.29878 2.11012ZM15.9508 11.7461H1.29878C1.09345 11.7461 0.917448 11.8121 0.770781 11.9441C0.624115 12.0761 0.550781 12.2558 0.550781 12.4831C0.550781 12.7105 0.616781 12.8865 0.748781 13.0111C0.880781 13.1358 1.06411 13.1981 1.29878 13.1981H15.9508C16.1561 13.1981 16.3321 13.1321 16.4788 13.0001C16.6255 12.8681 16.6988 12.6921 16.6988 12.4721C16.6988 12.2521 16.6255 12.0761 16.4788 11.9441C16.3321 11.8121 16.1561 11.7461 15.9508 11.7461Z" fill="#5D5D5D"/>
</svg>
