<svg width="19" height="22" viewBox="0 0 19 22" fill="none" xmlns="http://www.w3.org/2000/svg">
<path d="M18.6804 20.0921L15.0151 15.9841C15.6492 15.1521 16.1441 14.2118 16.4998 13.1631C16.8555 12.1144 17.0333 11.0268 17.0333 9.90009C17.0333 8.18409 16.6467 6.58943 15.8734 5.11609C15.1311 3.67743 14.1181 2.53343 12.8345 1.6841C11.52 0.817429 10.0894 0.384094 8.54292 0.384094C6.99639 0.384094 5.56586 0.817429 4.25131 1.6841C2.96769 2.51609 1.94699 3.64276 1.18919 5.06409C0.415928 6.55476 0.0292969 8.16243 0.0292969 9.88709C0.0292969 11.6118 0.415928 13.2108 1.18919 14.6841C1.93152 16.1228 2.93676 17.2668 4.20492 18.1161C5.53493 19.0001 6.9732 19.4421 8.51972 19.4421C9.52496 19.4421 10.4954 19.2428 11.4311 18.8441C12.3667 18.4454 13.2057 17.8908 13.948 17.1801L17.6133 21.2881C17.6597 21.3401 17.7293 21.3878 17.8221 21.4311C17.9149 21.4744 18.0077 21.4961 18.1004 21.4961C18.1932 21.4961 18.286 21.4744 18.3788 21.4311C18.4716 21.3878 18.5412 21.3401 18.5876 21.2881C18.7732 21.0801 18.8698 20.8721 18.8776 20.6641C18.8853 20.4561 18.8196 20.2654 18.6804 20.0921ZM1.56036 9.79609C1.56036 8.37476 1.87739 7.05743 2.51147 5.84409C3.13008 4.68276 3.95747 3.75543 4.99364 3.0621C6.07621 2.35143 7.25157 1.9961 8.51972 1.9961C9.78787 1.9961 10.9632 2.36009 12.0458 3.08809C13.0974 3.78143 13.9326 4.7261 14.5512 5.92209C15.1698 7.11809 15.4791 8.41809 15.4791 9.82209C15.4791 11.2261 15.1543 12.5348 14.5048 13.7481C13.8862 14.9268 13.0433 15.8628 11.9762 16.5561C10.9091 17.2494 9.75694 17.5961 8.51972 17.5961C7.26704 17.6308 6.09168 17.2928 4.99364 16.5821C3.95747 15.9061 3.12621 14.9614 2.49987 13.7481C1.87353 12.5348 1.56036 11.2174 1.56036 9.79609Z" fill="#5D5D5D"/>
</svg>
