<svg width="24" height="25" viewBox="0 0 24 25" fill="none" xmlns="http://www.w3.org/2000/svg">
<path d="M12.1605 12.3882C12.1305 12.3882 12.1105 12.3882 12.0805 12.3882C12.0305 12.3782 11.9605 12.3782 11.9005 12.3882C9.00055 12.2982 6.81055 10.0182 6.81055 7.20819C6.81055 4.34819 9.14055 2.01819 12.0005 2.01819C14.8605 2.01819 17.1905 4.34819 17.1905 7.20819C17.1805 10.0182 14.9805 12.2982 12.1905 12.3882C12.1805 12.3882 12.1705 12.3882 12.1605 12.3882ZM12.0005 3.51819C9.97055 3.51819 8.31055 5.17819 8.31055 7.20819C8.31055 9.20819 9.87055 10.8182 11.8605 10.8882C11.9105 10.8782 12.0505 10.8782 12.1805 10.8882C14.1405 10.7982 15.6805 9.18819 15.6905 7.20819C15.6905 5.17819 14.0305 3.51819 12.0005 3.51819Z" fill="#9BA6A6"/>
<path d="M12.1696 23.3182C10.2096 23.3182 8.23961 22.8182 6.74961 21.8182C5.35961 20.8982 4.59961 19.6382 4.59961 18.2682C4.59961 16.8982 5.35961 15.6282 6.74961 14.6982C9.74961 12.7082 14.6096 12.7082 17.5896 14.6982C18.9696 15.6182 19.7396 16.8782 19.7396 18.2482C19.7396 19.6182 18.9796 20.8882 17.5896 21.8182C16.0896 22.8182 14.1296 23.3182 12.1696 23.3182ZM7.57961 15.9582C6.61961 16.5982 6.09961 17.4182 6.09961 18.2782C6.09961 19.1282 6.62961 19.9482 7.57961 20.5782C10.0696 22.2482 14.2696 22.2482 16.7596 20.5782C17.7196 19.9382 18.2396 19.1182 18.2396 18.2582C18.2396 17.4082 17.7096 16.5882 16.7596 15.9582C14.2696 14.2982 10.0696 14.2982 7.57961 15.9582Z" fill="#9BA6A6"/>
</svg>
