<svg width="25" height="21" viewBox="0 0 25 21" fill="none" xmlns="http://www.w3.org/2000/svg">
<path d="M22.2954 0.634094H1.18344C0.923438 0.66876 0.706771 0.790094 0.533437 0.998095C0.360104 1.20609 0.273438 1.44009 0.273438 1.70009C0.273438 1.96009 0.360104 2.19843 0.533437 2.41509C0.706771 2.63176 0.923438 2.75743 1.18344 2.79209H5.36944L4.61544 12.3861V12.5681C4.61544 13.1574 4.82777 13.6644 5.25244 14.0891C5.6771 14.5138 6.1841 14.7261 6.77344 14.7261H20.0594C20.5794 14.7261 21.0344 14.5658 21.4244 14.2451C21.8144 13.9244 22.0614 13.5301 22.1654 13.0621L24.4014 3.28609C24.4361 3.07809 24.4534 2.91343 24.4534 2.79209C24.4534 2.18543 24.2454 1.67409 23.8294 1.25809C23.4134 0.842094 22.9021 0.634094 22.2954 0.634094ZM20.0594 12.5421H6.77344L7.52744 2.79209H22.2954L20.0594 12.5421ZM8.77544 20.1341C9.3821 20.1341 9.89777 19.9218 10.3224 19.4971C10.7471 19.0724 10.9594 18.5568 10.9594 17.9501C10.9594 17.3434 10.7471 16.8321 10.3224 16.4161C9.89777 16.0001 9.3821 15.7921 8.77544 15.7921C8.1861 15.7921 7.6791 16.0001 7.25444 16.4161C6.82977 16.8321 6.61744 17.3434 6.61744 17.9501C6.61744 18.5568 6.82977 19.0724 7.25444 19.4971C7.6791 19.9218 8.1861 20.1341 8.77544 20.1341ZM18.5254 20.1341C19.1321 20.1341 19.6478 19.9218 20.0724 19.4971C20.4971 19.0724 20.7094 18.5568 20.7094 17.9501C20.7094 17.3434 20.4971 16.8321 20.0724 16.4161C19.6478 16.0001 19.1321 15.7921 18.5254 15.7921C17.9361 15.7921 17.4291 16.0001 17.0044 16.4161C16.5798 16.8321 16.3674 17.3434 16.3674 17.9501C16.3674 18.5568 16.5798 19.0724 17.0044 19.4971C17.4291 19.9218 17.9361 20.1341 18.5254 20.1341Z" fill="#030712"/>
</svg>
